<svg width="212" height="32" viewBox="0 0 212 32" fill="none" xmlns="http://www.w3.org/2000/svg">
<g clip-path="url(#clip0_1_571)">
<path d="M55.5 0H77.5L58.5 32H36.5L55.5 0Z" fill="#043A53"/>
<path d="M35.5 0H51.5L32.5 32H16.5L35.5 0Z" fill="#92A7B0"/>
<path d="M19.5 0H31.5L12.5 32H0.5L19.5 0Z" fill="#C9D3D8"/>
</g>
<path d="M84 12.0568V8H103.114V12.0568H95.9886V31.2727H91.125V12.0568H84Z" fill="#043A53"/>
<path d="M104.358 31.2727V13.8182H109.051V16.8636H109.233C109.551 15.7803 110.085 14.9621 110.835 14.4091C111.585 13.8485 112.449 13.5682 113.426 13.5682C113.669 13.5682 113.93 13.5833 114.21 13.6136C114.491 13.6439 114.737 13.6856 114.949 13.7386V18.0341C114.722 17.9659 114.407 17.9053 114.006 17.8523C113.604 17.7992 113.237 17.7727 112.903 17.7727C112.191 17.7727 111.555 17.928 110.994 18.2386C110.441 18.5417 110.002 18.9659 109.676 19.5114C109.358 20.0568 109.199 20.6856 109.199 21.3977V31.2727H104.358Z" fill="#043A53"/>
<path d="M128.645 23.8409V13.8182H133.486V31.2727H128.838V28.1023H128.656C128.262 29.125 127.607 29.947 126.69 30.5682C125.781 31.1894 124.671 31.5 123.361 31.5C122.194 31.5 121.168 31.2348 120.281 30.7045C119.395 30.1742 118.702 29.4205 118.202 28.4432C117.709 27.4659 117.459 26.2955 117.452 24.9318V13.8182H122.293V24.0682C122.3 25.0985 122.577 25.9129 123.122 26.5114C123.668 27.1098 124.399 27.4091 125.315 27.4091C125.899 27.4091 126.444 27.2765 126.952 27.0114C127.459 26.7386 127.868 26.3371 128.179 25.8068C128.497 25.2765 128.652 24.6212 128.645 23.8409Z" fill="#043A53"/>
<path d="M151.881 18.7955L147.449 19.0682C147.373 18.6894 147.21 18.3485 146.96 18.0455C146.71 17.7348 146.381 17.4886 145.972 17.3068C145.57 17.1174 145.089 17.0227 144.528 17.0227C143.778 17.0227 143.146 17.1818 142.631 17.5C142.116 17.8106 141.858 18.2273 141.858 18.75C141.858 19.1667 142.025 19.5189 142.358 19.8068C142.691 20.0947 143.263 20.3258 144.074 20.5L147.233 21.1364C148.93 21.4848 150.195 22.0455 151.028 22.8182C151.862 23.5909 152.278 24.6061 152.278 25.8636C152.278 27.0076 151.941 28.0114 151.267 28.875C150.6 29.7386 149.684 30.4129 148.517 30.8977C147.358 31.375 146.021 31.6136 144.506 31.6136C142.195 31.6136 140.354 31.1326 138.983 30.1705C137.619 29.2008 136.82 27.8826 136.585 26.2159L141.347 25.9659C141.491 26.6705 141.839 27.2083 142.392 27.5795C142.945 27.9432 143.653 28.125 144.517 28.125C145.366 28.125 146.047 27.9621 146.562 27.6364C147.085 27.303 147.35 26.875 147.358 26.3523C147.35 25.9129 147.165 25.553 146.801 25.2727C146.438 24.9848 145.877 24.7652 145.119 24.6136L142.097 24.0114C140.392 23.6705 139.123 23.0795 138.29 22.2386C137.464 21.3977 137.051 20.3258 137.051 19.0227C137.051 17.9015 137.354 16.9356 137.96 16.125C138.574 15.3144 139.434 14.6894 140.54 14.25C141.653 13.8106 142.956 13.5909 144.449 13.5909C146.653 13.5909 148.388 14.0568 149.653 14.9886C150.926 15.9205 151.669 17.1894 151.881 18.7955Z" fill="#043A53"/>
<path d="M164.611 13.8182V17.4545H154.099V13.8182H164.611ZM156.486 9.63636H161.327V25.9091C161.327 26.3561 161.395 26.7045 161.531 26.9545C161.668 27.197 161.857 27.3674 162.099 27.4659C162.349 27.5644 162.637 27.6136 162.963 27.6136C163.19 27.6136 163.418 27.5947 163.645 27.5568C163.872 27.5114 164.046 27.4773 164.168 27.4545L164.929 31.0568C164.687 31.1326 164.346 31.2197 163.906 31.3182C163.467 31.4242 162.933 31.4886 162.304 31.5114C161.137 31.5568 160.115 31.4015 159.236 31.0455C158.365 30.6894 157.687 30.1364 157.202 29.3864C156.717 28.6364 156.478 27.6894 156.486 26.5455V9.63636Z" fill="#043A53"/>
<path d="M175.463 31.6136C173.675 31.6136 172.137 31.2348 170.849 30.4773C169.569 29.7121 168.584 28.6515 167.895 27.2955C167.213 25.9394 166.872 24.3788 166.872 22.6136C166.872 20.8258 167.217 19.2576 167.906 17.9091C168.603 16.553 169.592 15.4962 170.872 14.7386C172.152 13.9735 173.675 13.5909 175.44 13.5909C176.963 13.5909 178.296 13.8674 179.44 14.4205C180.584 14.9735 181.49 15.75 182.156 16.75C182.823 17.75 183.19 18.9242 183.259 20.2727H178.69C178.562 19.4015 178.221 18.7008 177.668 18.1705C177.122 17.6326 176.406 17.3636 175.52 17.3636C174.77 17.3636 174.115 17.5682 173.554 17.9773C173.001 18.3788 172.569 18.9659 172.259 19.7386C171.948 20.5114 171.793 21.447 171.793 22.5455C171.793 23.6591 171.944 24.6061 172.247 25.3864C172.558 26.1667 172.993 26.7614 173.554 27.1705C174.115 27.5795 174.77 27.7841 175.52 27.7841C176.073 27.7841 176.569 27.6705 177.009 27.4432C177.455 27.2159 177.823 26.8864 178.111 26.4545C178.406 26.0152 178.599 25.4886 178.69 24.875H183.259C183.183 26.2083 182.819 27.3826 182.168 28.3977C181.524 29.4053 180.634 30.1932 179.497 30.7614C178.361 31.3295 177.016 31.6136 175.463 31.6136Z" fill="#043A53"/>
<path d="M194.244 31.6136C192.479 31.6136 190.953 31.2386 189.665 30.4886C188.384 29.7311 187.396 28.678 186.699 27.3295C186.002 25.9735 185.653 24.4015 185.653 22.6136C185.653 20.8106 186.002 19.2348 186.699 17.8864C187.396 16.5303 188.384 15.4773 189.665 14.7273C190.953 13.9697 192.479 13.5909 194.244 13.5909C196.009 13.5909 197.532 13.9697 198.812 14.7273C200.1 15.4773 201.093 16.5303 201.79 17.8864C202.487 19.2348 202.835 20.8106 202.835 22.6136C202.835 24.4015 202.487 25.9735 201.79 27.3295C201.093 28.678 200.1 29.7311 198.812 30.4886C197.532 31.2386 196.009 31.6136 194.244 31.6136ZM194.267 27.8636C195.07 27.8636 195.741 27.6364 196.278 27.1818C196.816 26.7197 197.222 26.0909 197.494 25.2955C197.775 24.5 197.915 23.5947 197.915 22.5795C197.915 21.5644 197.775 20.6591 197.494 19.8636C197.222 19.0682 196.816 18.4394 196.278 17.9773C195.741 17.5152 195.07 17.2841 194.267 17.2841C193.456 17.2841 192.775 17.5152 192.222 17.9773C191.676 18.4394 191.263 19.0682 190.983 19.8636C190.71 20.6591 190.574 21.5644 190.574 22.5795C190.574 23.5947 190.71 24.5 190.983 25.2955C191.263 26.0909 191.676 26.7197 192.222 27.1818C192.775 27.6364 193.456 27.8636 194.267 27.8636Z" fill="#043A53"/>
<path d="M208.812 31.5682C208.062 31.5682 207.419 31.303 206.881 30.7727C206.35 30.2348 206.085 29.5909 206.085 28.8409C206.085 28.0985 206.35 27.4621 206.881 26.9318C207.419 26.4015 208.062 26.1364 208.812 26.1364C209.54 26.1364 210.176 26.4015 210.722 26.9318C211.267 27.4621 211.54 28.0985 211.54 28.8409C211.54 29.3409 211.411 29.7992 211.153 30.2159C210.903 30.625 210.574 30.9545 210.165 31.2045C209.756 31.447 209.305 31.5682 208.812 31.5682Z" fill="#043A53"/>
<defs>
<clipPath id="clip0_1_571">
<rect width="78" height="32" fill="white"/>
</clipPath>
</defs>
</svg>
