<svg width="247" height="40" viewBox="0 0 247 40" fill="none" xmlns="http://www.w3.org/2000/svg">
<rect width="40" height="40" rx="20" fill="#D7E0E5"/>
<g clip-path="url(#clip0_1_572)">
<path d="M20 10C14.477 10 10 14.477 10 20C10 24.991 13.657 29.128 18.438 29.879V22.89H15.898V20H18.438V17.797C18.438 15.291 19.93 13.907 22.215 13.907C23.309 13.907 24.453 14.102 24.453 14.102V16.562H23.193C21.95 16.562 21.563 17.333 21.563 18.124V20H24.336L23.893 22.89H21.563V29.879C26.343 29.129 30 24.99 30 20C30 14.477 25.523 10 20 10Z" fill="white"/>
</g>
<rect x="56" width="40" height="40" rx="20" fill="#D7E0E5"/>
<g clip-path="url(#clip1_1_572)">
<path d="M76 10C78.717 10 79.056 10.01 80.122 10.06C81.187 10.11 81.912 10.277 82.55 10.525C83.21 10.779 83.766 11.123 84.322 11.678C84.8305 12.1779 85.224 12.7826 85.475 13.45C85.722 14.087 85.89 14.813 85.94 15.878C85.987 16.944 86 17.283 86 20C86 22.717 85.99 23.056 85.94 24.122C85.89 25.187 85.722 25.912 85.475 26.55C85.2247 27.2178 84.8311 27.8226 84.322 28.322C83.822 28.8303 83.2173 29.2238 82.55 29.475C81.913 29.722 81.187 29.89 80.122 29.94C79.056 29.987 78.717 30 76 30C73.283 30 72.944 29.99 71.878 29.94C70.813 29.89 70.088 29.722 69.45 29.475C68.7823 29.2245 68.1775 28.8309 67.678 28.322C67.1694 27.8222 66.7759 27.2175 66.525 26.55C66.277 25.913 66.11 25.187 66.06 24.122C66.013 23.056 66 22.717 66 20C66 17.283 66.01 16.944 66.06 15.878C66.11 14.812 66.277 14.088 66.525 13.45C66.7752 12.7822 67.1688 12.1773 67.678 11.678C68.1777 11.1692 68.7824 10.7757 69.45 10.525C70.088 10.277 70.812 10.11 71.878 10.06C72.944 10.013 73.283 10 76 10ZM76 15C74.6739 15 73.4021 15.5268 72.4645 16.4645C71.5268 17.4021 71 18.6739 71 20C71 21.3261 71.5268 22.5979 72.4645 23.5355C73.4021 24.4732 74.6739 25 76 25C77.3261 25 78.5979 24.4732 79.5355 23.5355C80.4732 22.5979 81 21.3261 81 20C81 18.6739 80.4732 17.4021 79.5355 16.4645C78.5979 15.5268 77.3261 15 76 15ZM82.5 14.75C82.5 14.4185 82.3683 14.1005 82.1339 13.8661C81.8995 13.6317 81.5815 13.5 81.25 13.5C80.9185 13.5 80.6005 13.6317 80.3661 13.8661C80.1317 14.1005 80 14.4185 80 14.75C80 15.0815 80.1317 15.3995 80.3661 15.6339C80.6005 15.8683 80.9185 16 81.25 16C81.5815 16 81.8995 15.8683 82.1339 15.6339C82.3683 15.3995 82.5 15.0815 82.5 14.75ZM76 17C76.7956 17 77.5587 17.3161 78.1213 17.8787C78.6839 18.4413 79 19.2044 79 20C79 20.7956 78.6839 21.5587 78.1213 22.1213C77.5587 22.6839 76.7956 23 76 23C75.2044 23 74.4413 22.6839 73.8787 22.1213C73.3161 21.5587 73 20.7956 73 20C73 19.2044 73.3161 18.4413 73.8787 17.8787C74.4413 17.3161 75.2044 17 76 17Z" fill="white"/>
</g>
<rect x="112" width="40" height="40" rx="20" fill="#D7E0E5"/>
<g clip-path="url(#clip2_1_572)">
<path d="M141.543 14.498C142 16.28 142 20 142 20C142 20 142 23.72 141.543 25.502C141.289 26.487 140.546 27.262 139.605 27.524C137.896 28 132 28 132 28C132 28 126.107 28 124.395 27.524C123.45 27.258 122.708 26.484 122.457 25.502C122 23.72 122 20 122 20C122 20 122 16.28 122.457 14.498C122.711 13.513 123.454 12.738 124.395 12.476C126.107 12 132 12 132 12C132 12 137.896 12 139.605 12.476C140.55 12.742 141.292 13.516 141.543 14.498ZM130 23.5L136 20L130 16.5V23.5Z" fill="white"/>
</g>
<defs>
<clipPath id="clip0_1_572">
<rect width="24" height="24" fill="white" transform="translate(8 8)"/>
</clipPath>
<clipPath id="clip1_1_572">
<rect width="24" height="24" fill="white" transform="translate(64 8)"/>
</clipPath>
<clipPath id="clip2_1_572">
<rect width="24" height="24" fill="white" transform="translate(120 8)"/>
</clipPath>
</defs>
</svg>
